# xmcd
#
# Track frame offsets:
# 150
# 17569
# 31733
# 48303
# 55502
# 65898
# 75331
# 90014
# 103601
# 113148
#
# Disc length: 1750 seconds
#
#
# Revision: 0
# Processed by: cddbd v1.5.1PL0 Copyright (c) Steve Scherf et al.
# Submitted via: FreeRIP 2.91 
#
DISCID=6706d40a
DTITLE=Joe Santana - Sublime Amor
DYEAR=2000
DGENRE=Gospel
TTITLE0=Ao estrungir da Trombeta
TTITLE1=O Êxodo
TTITLE2=Jerusalem de Deus
TTITLE3=Lágrimas
TTITLE4=Fidelidade
TTITLE5=Nada Faltara
TTITLE6=Nivea Luz
TTITLE7=Noite de Paz
TTITLE8=Cicatrizes
TTITLE9=Mensagem da Cruz
EXTD=
EXTT0=
EXTT1=
EXTT2=
EXTT3=
EXTT4=
EXTT5=
EXTT6=
EXTT7=
EXTT8=
EXTT9=
PLAYORDER=
